<svg version="1.0" viewBox="0 0 110 110" xml:space="preserve" xmlns="http://www.w3.org/2000/svg" enable-background="new 0 0 110 110"><circle cx="55" cy="55" r="55" fill="#32bea6" class="fill-32bea6"></circle><path d="M55.002 87H87l-4-11a5.997 5.997 0 0 0-3.043-2.982L67 68l-2-1-10 8.003L45 67l-2 1-12.957 5.018A5.997 5.997 0 0 0 27 76l-4 11h31.998l.002.003.002-.003z" fill="#ffffff" class="fill-ffffff"></path><path d="M75 81v-9.997l-5-2V78H40v-8.997l-5 2V81l-2 6.003h44z" fill="#0484ab" class="fill-0484ab"></path><path d="M43 83h24v4H43z" fill="#21b2d1" class="fill-21b2d1"></path><path d="M57.655 67.997h-5.31a2.999 2.999 0 0 1-2.24-1.004L45 62.997v4.5s0 7.5 10 7.5 10-7.5 10-7.5v-4.5l-5.105 3.996a2.999 2.999 0 0 1-2.24 1.004z" fill="#f7b4b4" class="fill-f7b4b4"></path><path d="M50.105 66.996 45 63v4.5S45 75 55 75v-7h-2.655a2.999 2.999 0 0 1-2.24-1.004z" fill="#fbc8c8" class="fill-fbc8c8"></path><path d="M72 47.222C72 46.111 71 45 70 45s-1 1.111-1 1.111V45c-.004-2.144-.067-4.115-.332-5.877C65.103 40.558 59.438 41 55 41s-10.103-.442-13.668-1.877c-.265 1.762-.328 3.733-.332 5.877v7.997l4 10 5.105 3.996a2.999 2.999 0 0 0 2.24 1.004h5.31c.856 0 1.671-.365 2.24-1.004L65 62.997l3.207-8.017C71.042 54.776 72 50.476 72 47.222z" fill="#fbc8c8" class="fill-fbc8c8"></path><path d="M41 45v1.111S41 45 40 45s-2 1.111-2 2.222c0 3.253.958 7.554 3.793 7.758L45 62.997l5.105 3.996a2.999 2.999 0 0 0 2.24 1.004H55V41c-4.438 0-10.103-.442-13.668-1.877-.265 1.762-.328 3.733-.332 5.877z" fill="#fbd7d7" class="fill-fbd7d7"></path><path d="M50 56.997h10s0 3-5 3-5-3-5-3z" fill="#f79392" class="fill-f79392"></path><path d="M51.994 47.036a2 2 0 0 0-2-2h-.006c.001.021.006.041.006.062a2 2 0 0 1-1.994 2 1.996 1.996 0 0 0 3.994-.062zM61.987 47.036a2 2 0 0 0-2-2h-.006c.001.021.006.041.006.062a2 2 0 0 1-1.994 2 1.996 1.996 0 0 0 3.994-.062z" fill="#3e3e3f" class="fill-3e3e3f"></path><path d="M47 57h8c0-4.548-6-3.79-8 0zM63 57h-8c0-4.548 6-3.79 8 0zM66.369 44.35C67.5 48.9 67 55.02 67 56h1l1-2c0-.84.554-6.44.837-10.137-1.091.18-2.252.344-3.468.487zM43.631 44.35a77.096 77.096 0 0 1-3.469-.487C40.446 47.56 41 53.16 41 54l1 2h1c0-.98-.5-7.1.631-11.65z" fill="#84462d" class="fill-84462d"></path><path d="M80 40c0 2.209-11.193 5-25 5s-25-2.791-25-5 11.193-4 25-4 25 1.791 25 4z" fill="#f4d0a1" class="fill-f4d0a1"></path><path d="M69 35c.04-7.047-6.128-12-14-12s-14.04 4.953-14 12c.009 1.582 0 2 0 4 3.538 1.54 9.429 2 14 2s10.462-.46 14-2c0-2-.009-2.418 0-4z" fill="#f8e1c2" class="fill-f8e1c2"></path><path d="M30 40c0 2.209 11.193 5 25 5v-9c-13.807 0-25 1.791-25 4z" fill="#f8e1c2" class="fill-f8e1c2"></path><path d="M41 35c.009 1.582 0 2 0 4 3.538 1.54 9.429 2 14 2V23c-7.872 0-14.04 4.953-14 12z" fill="#fcf1e2" class="fill-fcf1e2"></path><path d="m67 68-2-2-10 9 7 5zM43 68l2-2 10 9-7 5z" fill="#e2e4e5" class="fill-e2e4e5"></path></svg>